<?xml version="1.0" standalone="no"?>
<!DOCTYPE svg PUBLIC "-//W3C//DTD SVG 20010904//EN"
 "http://www.w3.org/TR/2001/REC-SVG-20010904/DTD/svg10.dtd">
<svg version="1.0" xmlns="http://www.w3.org/2000/svg"
 width="700.000000pt" height="700.000000pt" viewBox="0 0 700.000000 700.000000"
 preserveAspectRatio="xMidYMid meet">
<metadata>
Created by potrace 1.11, written by Peter Selinger 2001-2013
</metadata>
<g transform="translate(0.000000,700.000000) scale(0.100000,-0.100000)"
fill="#000000" stroke="none">
<path d="M3427 6974 c-1 -1 -63 -4 -137 -8 -128 -6 -154 -8 -260 -22 -118 -15
-128 -17 -235 -39 -421 -87 -795 -236 -1147 -456 -238 -150 -397 -278 -613
-494 -265 -264 -465 -539 -632 -865 -60 -117 -123 -254 -123 -265 0 -4 -7 -21
-14 -38 -35 -76 -124 -357 -142 -447 -3 -14 -9 -41 -14 -60 -5 -19 -11 -48
-14 -64 -3 -16 -10 -52 -15 -80 -6 -28 -12 -69 -15 -91 -3 -22 -7 -49 -10 -61
-2 -11 -7 -56 -11 -100 -4 -43 -8 -97 -11 -119 -4 -48 -5 -426 0 -475 2 -19 7
-66 10 -105 10 -101 15 -137 36 -260 85 -480 265 -922 543 -1334 28 -42 54
-80 59 -86 359 -467 720 -781 1178 -1023 293 -155 664 -288 940 -336 19 -3 46
-8 60 -11 26 -5 90 -15 130 -21 27 -4 94 -11 210 -23 88 -10 502 -7 610 4 272
26 663 119 895 212 177 71 295 125 427 199 421 232 818 576 1096 949 240 323
420 674 535 1045 34 109 60 205 71 260 8 42 15 71 20 88 3 9 8 35 11 57 3 23
7 50 9 62 7 34 14 84 21 148 4 33 9 74 12 90 9 57 11 530 2 605 -4 41 -11 102
-15 135 -3 33 -8 69 -10 80 -2 10 -6 37 -9 60 -27 198 -119 519 -218 761 -347
845 -1071 1559 -1907 1881 -36 14 -78 31 -95 38 -146 63 -549 160 -750 180
-33 4 -71 8 -85 11 -33 5 -388 22 -393 18z"/>
</g>
</svg>
